<?xml version="1.0" standalone="no"?>
<!DOCTYPE svg PUBLIC "-//W3C//DTD SVG 20010904//EN"
 "http://www.w3.org/TR/2001/REC-SVG-20010904/DTD/svg10.dtd">
<svg version="1.0" xmlns="http://www.w3.org/2000/svg"
 width="1000.000000pt" height="1000.000000pt" viewBox="0 0 1000.000000 1000.000000"
 preserveAspectRatio="xMidYMid meet">
<metadata>
Created by potrace 1.11, written by Peter Selinger 2001-2013
</metadata>
<g transform="translate(0.000000,1000.000000) scale(0.100000,-0.100000)"
fill="#000000" stroke="none">
<path d="M0 5000 l0 -5000 5000 0 5000 0 0 5000 0 5000 -5000 0 -5000 0 0
-5000z m5085 1523 c68 -24 156 -111 178 -177 49 -145 -18 -305 -155 -367 l-53
-24 -1250 0 -1250 0 -57 28 c-103 51 -161 147 -161 267 0 100 44 184 123 236
84 56 18 53 1345 54 1146 0 1233 -1 1280 -17z m809 0 c188 -68 242 -316 101
-458 -56 -55 -106 -75 -195 -75 -89 0 -139 20 -195 75 -56 57 -80 116 -79 200
1 87 28 149 91 205 77 68 180 87 277 53z m856 -12 c101 -52 153 -137 154 -251
0 -115 -71 -220 -171 -254 -192 -65 -376 59 -377 254 -1 164 122 283 284 277
45 -2 79 -10 110 -26z m798 -2 c34 -16 73 -45 88 -62 122 -144 74 -359 -96
-436 -68 -31 -171 -29 -238 5 -103 51 -159 152 -150 268 12 146 130 254 279
256 43 0 70 -7 117 -31z m-4021 -859 c58 -26 119 -91 138 -151 21 -62 17 -168
-9 -220 -45 -93 -138 -150 -246 -151 -112 -1 -197 49 -246 144 -120 236 119
486 363 378z m-832 -34 c56 -26 117 -88 140 -142 9 -21 15 -67 15 -108 0 -117
-53 -202 -157 -248 -139 -62 -284 -5 -358 142 -72 142 -32 285 97 350 81 40
186 43 263 6z m2421 -798 c64 -34 128 -105 148 -165 48 -142 -21 -303 -156
-364 l-53 -24 -1220 -3 c-849 -2 -1236 1 -1272 9 -149 30 -251 185 -223 336
19 107 90 189 192 224 50 18 112 18 1293 16 l1240 -2 51 -27z m-2380 -826 c48
-25 110 -90 132 -141 23 -54 21 -166 -4 -222 -65 -141 -238 -205 -369 -136
-91 48 -126 91 -150 184 -35 135 40 280 169 327 57 22 169 15 222 -12z m830 0
c49 -25 107 -88 130 -139 25 -57 24 -167 -2 -224 -26 -56 -82 -111 -142 -141
-98 -47 -233 -18 -311 67 -54 58 -73 107 -74 186 -2 115 72 225 177 263 57 22
169 15 222 -12z m765 13 c90 -32 158 -111 180 -212 41 -180 -137 -360 -320
-324 -213 42 -303 301 -159 458 81 86 192 116 299 78z"/>
</g>
</svg>
