<svg xmlns="http://www.w3.org/2000/svg" width="91" height="44" viewBox="0 0 91 44">
  <g id="_360" data-name="360" transform="translate(13.925 -17.374)">
    <rect id="Rectangle_248" data-name="Rectangle 248" width="91" height="44" rx="5" transform="translate(-13.925 17.374)" fill="rgba(17,17,28,0.3)"/>
    <g id="Group_37" data-name="Group 37" transform="translate(3.2 23.2)">
      <path id="Path_171" data-name="Path 171" d="M4.571,39.472A1.349,1.349,0,0,0,5.942,38.1c0-6.318,11.146-11.623,24.259-11.623a53.585,53.585,0,0,1,7.689.6l-2.384,1.311,3.457.834c1.371.358,2.742.656,4.053,1.013,3.04.834,6.02,1.729,8.821,2.682l4.351,1.49-2.8-3.576c-.358-.477-.715-.894-1.013-1.311a51.019,51.019,0,0,0-5.6-5.782l-.656-.536-.775.3c-1.192.477-2.384,1.013-3.517,1.55A48.028,48.028,0,0,0,30.26,23.677c-15.14,0-27.06,6.318-27.06,14.365A1.364,1.364,0,0,0,4.571,39.472Z" transform="translate(-3.2 -23.2)" fill="#fff"/>
      <path id="Path_172" data-name="Path 172" d="M33.868,62.534a53.585,53.585,0,0,1-7.689-.6l2.384-1.311-3.457-.834c-1.371-.358-2.742-.656-4.053-1.013-3.1-.834-6.02-1.729-8.821-2.682L8,54.547l2.8,3.636c.358.477.715.894,1.013,1.311a51.018,51.018,0,0,0,5.6,5.782l.656.536.775-.3c1.192-.477,2.384-1.013,3.517-1.55a48.028,48.028,0,0,0,11.563,1.371c15.14,0,27.06-6.318,27.06-14.365a1.371,1.371,0,0,0-2.742,0C58.187,57.17,47.041,62.534,33.868,62.534Z" transform="translate(-5.139 -33.864)" fill="#fff"/>
    </g>
  </g>
</svg>
