<svg xmlns="http://www.w3.org/2000/svg" width="20.737" height="20.737" viewBox="0 0 20.737 20.737">
  <g id="activity_blue" transform="translate(-4.996 -4.496)">
    <g id="Group_30" data-name="Group 30" transform="translate(4.996 4.496)">
      <g id="Group_29" data-name="Group 29" transform="translate(0 0)">
        <path id="Path_110" data-name="Path 110" d="M8.271,14.864a.546.546,0,1,0-1.091,0h0a8.186,8.186,0,1,0,8.186-8.186h0a.546.546,0,0,0,0,1.091h.009a7.094,7.094,0,1,1-7.1,7.1S8.271,14.868,8.271,14.864Zm7.093-2.728a2.728,2.728,0,0,1,2.728,2.728.546.546,0,0,0,1.092,0,3.82,3.82,0,0,0-3.82-3.819.546.546,0,0,0,0,1.091Zm0,8.73a6,6,0,1,0,0-12,.546.546,0,1,0,0,1.091,4.911,4.911,0,1,1,0,9.821.546.546,0,1,0,0,1.091Zm0-16.37v0a.546.546,0,0,0,0,1.091h.011A9.29,9.29,0,1,1,9.894,7.378.544.544,0,1,0,9.439,6.4l-.02-.028A10.366,10.366,0,1,0,15.364,4.5Z" transform="translate(-4.996 -4.496)" fill="#3772ff" fill-rule="evenodd"/>
      </g>
    </g>
  </g>
</svg>
