<svg xmlns="http://www.w3.org/2000/svg" width="25.581" height="17.04" viewBox="0 0 25.581 17.04">
  <g id="cinema" transform="translate(0)">
    <g id="Group_28" data-name="Group 28" transform="translate(0)">
      <path id="Path_107" data-name="Path 107" d="M.318,0H25.262a.318.318,0,0,1,.318.318V1.672a.318.318,0,0,1-.318.318H24.43V16.722a.318.318,0,0,1-.318.318h-2.9a.319.319,0,0,1-.317-.295,14.96,14.96,0,0,1,.027-2.466H4.659a14.96,14.96,0,0,1,.027,2.466.318.318,0,0,1-.317.294h-2.9a.318.318,0,0,1-.318-.318V1.99H.318A.318.318,0,0,1,0,1.672V.318A.318.318,0,0,1,.318,0ZM11.873,7.667a.318.318,0,0,1-.637,0V6.337a.319.319,0,0,1,.5-.259l3.129,1.806a.317.317,0,0,1,.019.537l-3.054,2.066a.318.318,0,0,1-.5-.264V8.956a.318.318,0,0,1,.637,0v.67L14.113,8.18l-2.24-1.293Zm9.118,5.976a18.875,18.875,0,0,1,1.025-4.155C20,7.977,19.133,5.386,18.889,2.919H6.691c-.234,2.349-1.17,5.1-3.126,6.569A18.876,18.876,0,0,1,4.59,13.643Zm-2.15-11.36c-.006-.1-.011-.2-.014-.293H6.754c0,.093-.008.191-.014.293Zm3.527,6.675h1.1a.318.318,0,0,1,0,.637h-.811A17.288,17.288,0,0,0,21.51,16.4h2.284V1.99H19.461C19.559,4.5,20.29,7.369,22.367,8.957ZM2.924,9.594H2.113a.318.318,0,0,1,0-.637h1.1C5.289,7.362,6.024,4.489,6.12,1.99H1.787V16.4H4.071A17.27,17.27,0,0,0,2.924,9.594ZM24.944.637H.637v.717H24.944Z" transform="translate(0)" fill="#18206f"/>
    </g>
  </g>
</svg>
