<svg xmlns="http://www.w3.org/2000/svg" width="19.683" height="19.583" viewBox="0 0 19.683 19.583">
  <g id="device_blue" transform="translate(-20.543 -36.499)">
    <path id="Path_109" data-name="Path 109" d="M34.873,29.489a3.779,3.779,0,0,0-3.463-1.021l-2.256-2.256,2.052-2.052a3.77,3.77,0,0,0,4.261-5.528.437.437,0,0,0-.687-.09l-1.245,1.245a1.136,1.136,0,0,1-.742.373.254.254,0,0,1-.176-.054.349.349,0,0,1-.04-.3,1.288,1.288,0,0,1,.359-.614l1.245-1.245a.437.437,0,0,0-.09-.687,3.783,3.783,0,0,0-1.895-.508,3.772,3.772,0,0,0-3.686,4.567l-2.127,2.127-2.127-2.127a3.773,3.773,0,0,0-5.58-4.058.437.437,0,0,0-.09.687l1.245,1.245a1.284,1.284,0,0,1,.359.614.252.252,0,0,1-.344.344,1.285,1.285,0,0,1-.614-.359l-1.245-1.245a.437.437,0,0,0-.687.09,3.771,3.771,0,0,0,4.262,5.528l2.052,2.052-2.256,2.256a3.8,3.8,0,0,0-.794-.084A3.772,3.772,0,0,0,17.3,34.048a.437.437,0,0,0,.687.09l1.354-1.355a1.137,1.137,0,0,1,.743-.373.254.254,0,0,1,.176.054.349.349,0,0,1,.04.3,1.289,1.289,0,0,1-.359.615l-1.355,1.355a.437.437,0,0,0,.09.687,3.785,3.785,0,0,0,1.895.507h0a3.744,3.744,0,0,0,2.665-1.1,3.8,3.8,0,0,0,.969-3.666l2.18-2.18,2.18,2.18a3.772,3.772,0,0,0,5.527,4.262.437.437,0,0,0,.09-.687l-1.354-1.355a1.136,1.136,0,0,1-.373-.742.253.253,0,0,1,.054-.176c.119-.12.547-.053.918.319l1.355,1.355a.437.437,0,0,0,.687-.09A3.777,3.777,0,0,0,34.873,29.489Zm-12.88-6.133a.437.437,0,0,0-.455-.1,2.9,2.9,0,0,1-3.724-3.648l.8.8a2.146,2.146,0,0,0,1.054.6,1.106,1.106,0,0,0,1.377-1.377,2.145,2.145,0,0,0-.6-1.054l-.8-.8a2.9,2.9,0,0,1,3.7,3.557.437.437,0,0,0,.111.43l2.3,2.3-1.535,1.535Zm1.3,7.831a2.917,2.917,0,0,1-.679,3.024,2.876,2.876,0,0,1-2.047.848h0a2.916,2.916,0,0,1-.921-.149L20.559,34a2.152,2.152,0,0,0,.6-1.054,1.18,1.18,0,0,0-.278-1.1,1.093,1.093,0,0,0-.794-.31,2.017,2.017,0,0,0-1.36.629l-.909.91a2.9,2.9,0,0,1,3.557-3.7.436.436,0,0,0,.429-.111l7.5-7.5a.437.437,0,0,0,.111-.43,2.907,2.907,0,0,1,.735-2.858,2.876,2.876,0,0,1,2.047-.848,2.918,2.918,0,0,1,.921.149l-.8.8a2.146,2.146,0,0,0-.6,1.055,1.181,1.181,0,0,0,.278,1.1,1.094,1.094,0,0,0,.794.31,2.014,2.014,0,0,0,1.36-.629l.8-.8a2.9,2.9,0,0,1-3.723,3.648.437.437,0,0,0-.455.1L23.4,30.732A.437.437,0,0,0,23.3,31.187Zm11.657,1.888-.91-.91a1.557,1.557,0,0,0-2.153-.319,1.094,1.094,0,0,0-.31.795A2.014,2.014,0,0,0,32.21,34l.909.91a2.9,2.9,0,0,1-3.647-3.724.437.437,0,0,0-.1-.455L27,28.364l1.535-1.535,2.431,2.431a.436.436,0,0,0,.429.111,2.9,2.9,0,0,1,3.558,3.7Z" transform="translate(4 20)" fill="#3772ff" stroke="#3772ff" stroke-width="0.3"/>
  </g>
</svg>
