<svg xmlns="http://www.w3.org/2000/svg" width="34.741" height="26.845" viewBox="0 0 34.741 26.845">
  <g id="emergency" transform="translate(-5.904 -15)">
    <path id="Path_137" data-name="Path 137" d="M23.2,967.366a.817.817,0,0,0-.7.8v4.34a.789.789,0,1,0,1.577,0v-4.34A.823.823,0,0,0,23.2,967.366Zm-12.59,3.156a.789.789,0,0,0-.394,1.443c1.263.942,2.64,1.843,3.905,2.737a.786.786,0,0,0,1.255-.415c.115-.455-.039-.645-.2-.756-1.468-1.051-2.956-2.065-4.053-2.848a.8.8,0,0,0-.517-.16Zm25.255,0a.794.794,0,0,0-.419.16c-1.306.991-2.761,1.88-4.053,2.848a.74.74,0,0,0-.167.833.784.784,0,0,0,1.2.351c1.48-.992,2.862-1.986,3.93-2.749a.789.789,0,0,0-.493-1.443Zm-12.578,4.352c-5.152,0-9.461,3.439-9.461,7.891v6.707a1.5,1.5,0,0,0-1.207.666,2.278,2.278,0,0,0-.37,1.307v.789a2.239,2.239,0,0,0,.37,1.295,1.511,1.511,0,0,0,1.207.678H32.749a1.511,1.511,0,0,0,1.207-.678,2.239,2.239,0,0,0,.37-1.295v-.789a2.278,2.278,0,0,0-.37-1.307,1.5,1.5,0,0,0-1.207-.666v-6.707C32.749,978.314,28.44,974.874,23.288,974.874Zm0,1.578c4.46,0,7.884,2.9,7.884,6.313v6.707H15.4v-6.707c0-3.416,3.425-6.313,7.884-6.313Zm-.074,1.578a.79.79,0,0,0,.074,1.578,4.559,4.559,0,0,1,3.092.949,5.468,5.468,0,0,1,1.651,3.5.789.789,0,1,0,1.552-.234,7.075,7.075,0,0,0-2.181-4.463,6.17,6.17,0,0,0-4.115-1.332q-.037,0-.074,0ZM6.656,981.187a.79.79,0,0,0,.074,1.578h4.731a.789.789,0,1,0,0-1.578h-4.8Zm28.384,0a.79.79,0,0,0,.074,1.578h4.731a.789.789,0,1,0,0-1.578h-4.8ZM13.925,991.05H32.65a.742.742,0,0,1,.1.395v.789a.743.743,0,0,1-.1.395H13.925a.743.743,0,0,1-.1-.395v-.789A.742.742,0,0,1,13.925,991.05Z" transform="translate(0 -952.362)" fill="#18206f"/>
  </g>
</svg>
