<svg xmlns="http://www.w3.org/2000/svg" width="18.52" height="18.52" viewBox="0 0 18.52 18.52">
  <g id="family_blue" transform="translate(-2.207 -2.207)">
    <path id="path" d="M11.26,11.26a4.63,4.63,0,1,1,4.63-4.63A4.63,4.63,0,0,1,11.26,11.26Zm0-1.684A2.946,2.946,0,1,0,8.314,6.63,2.946,2.946,0,0,0,11.26,9.576Zm8.762,5.962a5.422,5.422,0,0,1,.341,1.4q.094.645.145,1.3l.01.126,0,.06a2.1,2.1,0,0,1-2.1,2.1H4.1a2.1,2.1,0,0,1-2.1-2.1l0-.06.01-.126q.054-.65.145-1.3a5.422,5.422,0,0,1,.341-1.4c.647-1.4,5.41-3.436,8.762-3.436S19.375,14.134,20.022,15.538Zm-1.615.641a4.333,4.333,0,0,0-.495-.361,12.235,12.235,0,0,0-1.763-.911,12.987,12.987,0,0,0-4.889-1.122,12.988,12.988,0,0,0-4.889,1.122,12.235,12.235,0,0,0-1.763.911,4.371,4.371,0,0,0-.495.361,1.278,1.278,0,0,0-.1.1,5.259,5.259,0,0,0-.19.9c-.042.282-.077.587-.106.892-.015.157-.026.285-.032.367a.421.421,0,0,0,.418.4H18.418a.421.421,0,0,0,.418-.4c-.006-.082-.017-.209-.032-.366q-.042-.448-.106-.893a5.259,5.259,0,0,0-.19-.9A1.2,1.2,0,0,0,18.407,16.18Z" transform="translate(0.207 0.207)" fill="#3772ff"/>
  </g>
</svg>
