<svg xmlns="http://www.w3.org/2000/svg" width="29.28" height="14.86" viewBox="0 0 29.28 14.86">
  <g id="go_home" data-name="go home" transform="translate(-1 4.703)">
    <ellipse id="Ellipse_6" data-name="Ellipse 6" cx="1.124" cy="1.124" rx="1.124" ry="1.124" transform="translate(3.891 -4.696)" fill="#fff"/>
    <path id="Path_80" data-name="Path 80" d="M19.681,18.085h0l1.445,1.1a.544.544,0,0,0,.658-.866l-2.1-1.6Z" transform="translate(-13.94 -15.987)" fill="#fff"/>
    <path id="Path_81" data-name="Path 81" d="M3.9,29.311a2.847,2.847,0,0,1-.761-.639L1.048,34.1a.679.679,0,0,0,.381.882.672.672,0,0,0,.25.048.68.68,0,0,0,.632-.429l1.941-5.057L4.2,29.514Z" transform="translate(0 -24.906)" fill="#fff"/>
    <path id="Path_82" data-name="Path 82" d="M9.2,12.9a.7.7,0,0,0-.263-.387L6.658,10.741V6.279a.936.936,0,0,0-.882-1.092.758.758,0,0,0-.1-.007,1.547,1.547,0,0,0-1.025.528l-1.9,1.875a.557.557,0,0,0-.161.386v2.237a.543.543,0,1,0,1.087,0V8.2l.8-.8L4.5,10.866c.049.22.339.411.8.732l.472.317,2.173,1.56.879,3.511a.68.68,0,0,0,.659.515.666.666,0,0,0,.165-.021.679.679,0,0,0,.495-.824Z" transform="translate(-1.189 -7.375)" fill="#fff"/>
    <path id="Path_83" data-name="Path 83" d="M30.464-4.475a.508.508,0,0,0-.718,0,.508.508,0,0,0,0,.718l.935.935H28.006a.508.508,0,0,0-.508.508.508.508,0,0,0,.508.508h2.676l-.935.935a.507.507,0,0,0,0,.718.505.505,0,0,0,.359.149.505.505,0,0,0,.359-.149l1.8-1.8a.515.515,0,0,0,0-.718Z" transform="translate(-19.774 -0.059)" fill="#fff"/>
    <path id="Path_84" data-name="Path 84" d="M37.083,10.263Z" transform="translate(-26.882 -11.168)" fill="#fff"/>
    <path id="Path_85" data-name="Path 85" d="M37.282,10.159l-.026.026Z" transform="translate(-27.056 -11.091)" fill="#fff"/>
    <path id="Path_86" data-name="Path 86" d="M47.607,2,47.6,10.157h1.442l.01-9.214L54.3-2.913,59.57.96l.008,9.2H61.02l-.01-8.14,1.458,1.072.854-1.162L54.3-4.7l-9.022,6.63.854,1.162Z" transform="translate(-33.041)" fill="#fff"/>
  </g>
</svg>
