<svg xmlns="http://www.w3.org/2000/svg" width="19.897" height="19.897" viewBox="0 0 19.897 19.897">
  <g id="home_blue" transform="translate(-2.207 -2.207)">
    <path id="path" d="M10.14,20.992a.9.9,0,0,1-.9.9H4.258A2.258,2.258,0,0,1,2,19.633V11.945A4.219,4.219,0,0,1,3.352,9.024l8.01-6.809a.9.9,0,0,1,1.171,0l8.011,6.809A4.218,4.218,0,0,1,21.9,11.946v7.687A2.26,2.26,0,0,1,19.635,21.9H14.661a.9.9,0,0,1-.9-.9V15.566H10.14Zm9.5-.9a.451.451,0,0,0,.453-.455V11.945a2.448,2.448,0,0,0-.714-1.542L11.948,4.091,4.523,10.4a2.456,2.456,0,0,0-.714,1.542v7.687a.449.449,0,0,0,.449.455H8.331V14.662a.9.9,0,0,1,.9-.9h5.426a.9.9,0,0,1,.9.9v5.426Z" transform="translate(0.207 0.207)" fill="#3772ff"/>
  </g>
</svg>
