<svg xmlns="http://www.w3.org/2000/svg" width="29.284" height="14.862" viewBox="0 0 29.284 14.862">
  <g id="leaving_home" data-name="leaving home" transform="translate(0 4.703)">
    <path id="Path_74" data-name="Path 74" d="M2.33,2l-.008,8.154H3.764L3.774.944,9.022-2.913,14.294.961l.008,9.2h1.443l-.01-8.141L17.192,3.09l.854-1.162L9.022-4.7,0,1.928.854,3.09Z" fill="#18206f"/>
    <circle id="Ellipse_5" data-name="Ellipse 5" cx="1.124" cy="1.124" r="1.124" transform="translate(24.203 -4.696)" fill="#18206f"/>
    <path id="Path_75" data-name="Path 75" d="M102.655,18.086h0l1.445,1.1a.544.544,0,0,0,.658-.866l-2.1-1.6Z" transform="translate(-76.602 -15.986)" fill="#18206f"/>
    <path id="Path_76" data-name="Path 76" d="M86.869,29.312a2.848,2.848,0,0,1-.761-.64L84.02,34.1a.68.68,0,0,0,.381.882.672.672,0,0,0,.25.048.68.68,0,0,0,.632-.429l1.941-5.057-.049-.032Z" transform="translate(-62.661 -24.905)" fill="#18206f"/>
    <path id="Path_77" data-name="Path 77" d="M92.175,12.906a.7.7,0,0,0-.263-.387l-2.281-1.777V6.28a.936.936,0,0,0-.882-1.092.756.756,0,0,0-.1-.007,1.547,1.547,0,0,0-1.025.528l-1.9,1.875a.557.557,0,0,0-.161.386v2.237a.543.543,0,1,0,1.087,0V8.2l.8-.8.013,3.466c.049.22.339.411.8.732l.472.317,2.173,1.56.879,3.511a.68.68,0,0,0,.659.515.666.666,0,0,0,.165-.021.679.679,0,0,0,.495-.824Z" transform="translate(-63.85 -7.376)" fill="#18206f"/>
    <path id="Path_78" data-name="Path 78" d="M66.984-4.475a.508.508,0,0,0-.718,0,.508.508,0,0,0,0,.718l.935.935H64.525a.508.508,0,0,0-.508.508.508.508,0,0,0,.508.508H67.2l-.935.935a.507.507,0,0,0,0,.718.506.506,0,0,0,.359.149.506.506,0,0,0,.359-.149l1.8-1.8a.515.515,0,0,0,0-.718Z" transform="translate(-47.77 -0.059)" fill="#18206f"/>
  </g>
</svg>
