<svg xmlns="http://www.w3.org/2000/svg" width="19.793" height="19.793" viewBox="0 0 19.793 19.793">
  <g id="logout" transform="translate(-2.097 -2.207)">
    <path id="path" d="M10.92,11l3.412-3.412A.9.9,0,0,0,13.06,6.312L8.111,11.26a.9.9,0,0,0,0,1.272l4.948,4.948a.9.9,0,0,0,1.272-1.272L10.92,12.8H20.9a.9.9,0,0,0,0-1.8ZM12.8,3.8a.9.9,0,1,0,0-1.8H4.253A2.252,2.252,0,0,0,2,4.252V19.541a2.252,2.252,0,0,0,2.253,2.252H12.8a.9.9,0,1,0,0-1.8H4.253a.453.453,0,0,1-.454-.453V4.252A.452.452,0,0,1,4.253,3.8Z" transform="translate(0.097 0.207)" fill="rgba(23,37,90,0.45)"/>
  </g>
</svg>
