<svg xmlns="http://www.w3.org/2000/svg" width="18.52" height="21.444" viewBox="0 0 18.52 21.444">
  <g id="privacy_blue" transform="translate(-2.197 -1.098)">
    <path id="path" d="M23.52,5.97v9.511a4.224,4.224,0,0,1-1.6,3.151L16.027,22.9a3.138,3.138,0,0,1-3.535,0L6.6,18.631A4.235,4.235,0,0,1,5,15.48V5.97A3.1,3.1,0,0,1,7.055,3.115a15.185,15.185,0,0,1,2-.561,24.742,24.742,0,0,1,10.414,0,15.157,15.157,0,0,1,2,.563A3.12,3.12,0,0,1,23.52,5.97ZM6.95,5.97v9.511a2.329,2.329,0,0,0,.793,1.572l5.893,4.268a1.2,1.2,0,0,0,1.249,0l5.893-4.268a2.311,2.311,0,0,0,.793-1.572V5.97a1.182,1.182,0,0,0-.715-1l-.06-.021q-.213-.078-.43-.144-.652-.2-1.318-.345a22.794,22.794,0,0,0-9.574,0Q8.807,4.6,8.155,4.8c-.219.068-.365.118-.43.144l-.073.024a1.162,1.162,0,0,0-.7,1Zm4.1,5.576L12.8,13.293,17.47,8.621A.975.975,0,1,1,18.848,10l-5.361,5.361a.975.975,0,0,1-1.378,0L9.672,12.924a.975.975,0,1,1,1.378-1.378Z" transform="translate(-2.804 -0.902)" fill="#3772ff"/>
  </g>
</svg>
