<svg xmlns="http://www.w3.org/2000/svg" width="27.998" height="27.998" viewBox="0 0 27.998 27.998">
  <g id="romance" transform="translate(-10.001 -10)">
    <path id="Path_138" data-name="Path 138" d="M44.468,48.332a.35.35,0,0,0,.174-.046c.095-.054,2.329-1.351,2.745-3.166A1.91,1.91,0,0,0,46.3,42.852a1.629,1.629,0,0,0-1.835.4,1.63,1.63,0,0,0-1.835-.4,1.91,1.91,0,0,0-1.084,2.267c.415,1.815,2.65,3.112,2.745,3.166A.35.35,0,0,0,44.468,48.332Zm-2.236-3.369A1.223,1.223,0,0,1,42.9,43.5a.975.975,0,0,1,.367-.073,1.057,1.057,0,0,1,.9.574.363.363,0,0,0,.6,0,1,1,0,0,1,1.272-.5,1.222,1.222,0,0,1,.666,1.463,5.189,5.189,0,0,1-2.237,2.607A5.177,5.177,0,0,1,42.231,44.963Z" transform="translate(-20.468 -21.27)" fill="#18206f"/>
    <path id="Path_139" data-name="Path 139" d="M49.35,31.807a.35.35,0,0,0-.35.35v1.494a.35.35,0,0,0,.7,0V32.157A.35.35,0,0,0,49.35,31.807Z" transform="translate(-25.35 -14.175)" fill="#18206f"/>
    <path id="Path_140" data-name="Path 140" d="M45.1,10.032a.35.35,0,0,0-.173.464A21.841,21.841,0,0,1,46.334,16.4a.35.35,0,0,0,.348.319h.031a.35.35,0,0,0,.318-.379A22.114,22.114,0,0,0,45.565,10.2.35.35,0,0,0,45.1,10.032Z" transform="translate(-22.683)" fill="#18206f"/>
    <path id="Path_141" data-name="Path 141" d="M39.185,15.835a.349.349,0,0,0-.037.493,8.312,8.312,0,0,1,1.859,3.83.35.35,0,0,0,.346.3.381.381,0,0,0,.048,0,.35.35,0,0,0,.3-.394,8.87,8.87,0,0,0-2.023-4.192A.351.351,0,0,0,39.185,15.835Z" transform="translate(-18.891 -3.738)" fill="#18206f"/>
    <path id="Path_142" data-name="Path 142" d="M36.945,36.945a.35.35,0,0,0,0,.495L38,38.5A.35.35,0,0,0,38.5,38L37.44,36.945A.35.35,0,0,0,36.945,36.945Z" transform="translate(-17.448 -17.448)" fill="#18206f"/>
    <path id="Path_143" data-name="Path 143" d="M18.544,24.552a.35.35,0,0,0,.206.45,21.813,21.813,0,0,1,5.171,3.183.35.35,0,1,0,.45-.537,22.115,22.115,0,0,0-5.376-3.3A.351.351,0,0,0,18.544,24.552Z" transform="translate(-5.539 -9.311)" fill="#18206f"/>
    <path id="Path_144" data-name="Path 144" d="M23.02,34.676a.35.35,0,0,0,.212-.628,8.867,8.867,0,0,0-4.395-1.534.35.35,0,1,0-.052.7,8.317,8.317,0,0,1,4.023,1.393A.345.345,0,0,0,23.02,34.676Z" transform="translate(-5.5 -14.634)" fill="#18206f"/>
    <path id="Path_145" data-name="Path 145" d="M32.157,49.7h1.494a.35.35,0,0,0,0-.7H32.157a.35.35,0,0,0,0,.7Z" transform="translate(-14.174 -25.35)" fill="#18206f"/>
    <path id="Path_146" data-name="Path 146" d="M10.033,50.932a.35.35,0,0,0,.464.173A21.841,21.841,0,0,1,16.4,49.7a.35.35,0,0,0,.318-.379A.346.346,0,0,0,16.342,49a22.114,22.114,0,0,0-6.137,1.466A.35.35,0,0,0,10.033,50.932Z" transform="translate(0 -25.351)" fill="#18206f"/>
    <path id="Path_147" data-name="Path 147" d="M20.063,53.393a8.87,8.87,0,0,0-4.192,2.023.35.35,0,0,0,.457.531,8.312,8.312,0,0,1,3.83-1.859.35.35,0,0,0-.095-.694Z" transform="translate(-3.736 -28.204)" fill="#18206f"/>
    <path id="Path_148" data-name="Path 148" d="M37.193,59.9a.349.349,0,0,0,.247-.1L38.5,58.736A.35.35,0,1,0,38,58.241L36.945,59.3a.35.35,0,0,0,.247.6Z" transform="translate(-17.448 -31.291)" fill="#18206f"/>
    <path id="Path_149" data-name="Path 149" d="M24.552,70.361a.346.346,0,0,0,.122.022A.351.351,0,0,0,25,70.155a21.813,21.813,0,0,1,3.183-5.171.35.35,0,0,0-.537-.45,22.115,22.115,0,0,0-3.3,5.376A.349.349,0,0,0,24.552,70.361Z" transform="translate(-9.31 -35.367)" fill="#18206f"/>
    <path id="Path_150" data-name="Path 150" d="M32.838,72.42h.026a.35.35,0,0,0,.349-.324,8.317,8.317,0,0,1,1.393-4.023.35.35,0,0,0-.557-.423,8.867,8.867,0,0,0-1.534,4.395A.35.35,0,0,0,32.838,72.42Z" transform="translate(-14.634 -37.384)" fill="#18206f"/>
    <path id="Path_151" data-name="Path 151" d="M49.35,64.119a.35.35,0,0,0,.35-.35V62.275a.35.35,0,1,0-.7,0v1.494A.35.35,0,0,0,49.35,64.119Z" transform="translate(-25.35 -33.752)" fill="#18206f"/>
    <path id="Path_152" data-name="Path 152" d="M50.786,77.514a.35.35,0,0,0,.318-.5A21.841,21.841,0,0,1,49.7,71.111a.35.35,0,0,0-.7.062,22.114,22.114,0,0,0,1.466,6.137A.35.35,0,0,0,50.786,77.514Z" transform="translate(-25.35 -39.515)" fill="#18206f"/>
    <path id="Path_153" data-name="Path 153" d="M55.682,75.5a.35.35,0,0,0,.265-.578,8.312,8.312,0,0,1-1.859-3.83.35.35,0,0,0-.693.095,8.87,8.87,0,0,0,2.023,4.192A.349.349,0,0,0,55.682,75.5Z" transform="translate(-28.204 -39.516)" fill="#18206f"/>
    <path id="Path_154" data-name="Path 154" d="M59.545,59.9a.35.35,0,0,0,.247-.6l-1.056-1.056a.35.35,0,0,0-.495.495L59.3,59.793A.348.348,0,0,0,59.545,59.9Z" transform="translate(-31.29 -31.291)" fill="#18206f"/>
    <path id="Path_155" data-name="Path 155" d="M69.912,68.33a.346.346,0,0,0,.122.022.35.35,0,0,0,.122-.678,21.813,21.813,0,0,1-5.171-3.183.35.35,0,0,0-.45.537A22.09,22.09,0,0,0,69.912,68.33Z" transform="translate(-35.367 -35.367)" fill="#18206f"/>
    <path id="Path_156" data-name="Path 156" d="M67.585,61.443a.35.35,0,0,0,.066.49,8.867,8.867,0,0,0,4.395,1.534h.026a.35.35,0,0,0,.026-.7,8.317,8.317,0,0,1-4.023-1.393A.35.35,0,0,0,67.585,61.443Z" transform="translate(-37.384 -33.349)" fill="#18206f"/>
    <path id="Path_157" data-name="Path 157" d="M64.119,49.35a.35.35,0,0,0-.35-.35H62.275a.35.35,0,1,0,0,.7h1.494A.35.35,0,0,0,64.119,49.35Z" transform="translate(-33.751 -25.35)" fill="#18206f"/>
    <path id="Path_158" data-name="Path 158" d="M77.482,45.1a.349.349,0,0,0-.464-.173,21.841,21.841,0,0,1-5.907,1.406.35.35,0,0,0,.03.7h.031a22.115,22.115,0,0,0,6.137-1.466A.35.35,0,0,0,77.482,45.1Z" transform="translate(-39.515 -22.683)" fill="#18206f"/>
    <path id="Path_159" data-name="Path 159" d="M71.141,41.7a.367.367,0,0,0,.048,0,8.87,8.87,0,0,0,4.192-2.023.35.35,0,1,0-.457-.53,8.312,8.312,0,0,1-3.83,1.859.35.35,0,0,0,.047.7Z" transform="translate(-39.515 -18.892)" fill="#18206f"/>
    <path id="Path_160" data-name="Path 160" d="M59.3,36.945,58.241,38a.35.35,0,1,0,.495.495l1.056-1.056a.35.35,0,0,0-.495-.495Z" transform="translate(-31.29 -17.448)" fill="#18206f"/>
    <path id="Path_161" data-name="Path 161" d="M68.124,18.544a.351.351,0,0,0-.45.206,21.813,21.813,0,0,1-3.183,5.171.35.35,0,0,0,.537.45,22.115,22.115,0,0,0,3.3-5.376A.35.35,0,0,0,68.124,18.544Z" transform="translate(-35.366 -5.539)" fill="#18206f"/>
    <path id="Path_162" data-name="Path 162" d="M63.145,18.463a.349.349,0,0,0-.375.323,8.317,8.317,0,0,1-1.393,4.023.35.35,0,0,0,.558.423,8.867,8.867,0,0,0,1.534-4.395A.351.351,0,0,0,63.145,18.463Z" transform="translate(-33.349 -5.5)" fill="#18206f"/>
    <path id="Path_163" data-name="Path 163" d="M30.766,17.529a1.779,1.779,0,1,0-1.779,1.779A1.781,1.781,0,0,0,30.766,17.529Zm-1.779,1.079a1.079,1.079,0,1,1,1.079-1.079A1.081,1.081,0,0,1,28.987,18.608Z" transform="translate(-11.185 -3.738)" fill="#18206f"/>
    <path id="Path_164" data-name="Path 164" d="M11.771,38.593a1.779,1.779,0,1,0,.521-1.258A1.768,1.768,0,0,0,11.771,38.593Zm1.016-.763a1.079,1.079,0,0,1,1.526,1.526,1.106,1.106,0,0,1-1.526,0,1.08,1.08,0,0,1,0-1.526Z" transform="translate(-1.151 -17.429)" fill="#18206f"/>
    <path id="Path_165" data-name="Path 165" d="M17.529,66.183A1.779,1.779,0,1,0,15.75,64.4,1.781,1.781,0,0,0,17.529,66.183Zm0-2.858A1.079,1.079,0,1,1,16.45,64.4,1.081,1.081,0,0,1,17.529,63.325Z" transform="translate(-3.737 -34.207)" fill="#18206f"/>
    <path id="Path_166" data-name="Path 166" d="M38.593,81.62a1.779,1.779,0,1,0-1.258-.521A1.768,1.768,0,0,0,38.593,81.62Zm-.763-2.542A1.079,1.079,0,0,1,39.357,80.6a1.105,1.105,0,0,1-1.526,0,1.08,1.08,0,0,1,0-1.526Z" transform="translate(-17.429 -44.241)" fill="#18206f"/>
    <path id="Path_167" data-name="Path 167" d="M66.183,75.862A1.779,1.779,0,1,0,64.4,77.641,1.781,1.781,0,0,0,66.183,75.862ZM64.4,76.941a1.079,1.079,0,1,1,1.079-1.079A1.08,1.08,0,0,1,64.4,76.941Z" transform="translate(-34.206 -41.655)" fill="#18206f"/>
    <path id="Path_168" data-name="Path 168" d="M81.1,56.055a1.779,1.779,0,1,0-1.258.521A1.767,1.767,0,0,0,81.1,56.055ZM78.762,54.8a1.079,1.079,0,1,1,1.842.763,1.105,1.105,0,0,1-1.526,0A1.073,1.073,0,0,1,78.762,54.8Z" transform="translate(-44.241 -27.962)" fill="#18206f"/>
    <path id="Path_169" data-name="Path 169" d="M75.862,27.208a1.779,1.779,0,1,0,1.779,1.779A1.781,1.781,0,0,0,75.862,27.208Zm0,2.858a1.079,1.079,0,1,1,1.079-1.079A1.081,1.081,0,0,1,75.862,30.066Z" transform="translate(-41.654 -11.185)" fill="#18206f"/>
    <path id="Path_170" data-name="Path 170" d="M54.8,11.771a1.779,1.779,0,1,0,1.258.521A1.768,1.768,0,0,0,54.8,11.771Zm.763,2.542a1.106,1.106,0,0,1-1.526,0,1.079,1.079,0,1,1,1.526,0Z" transform="translate(-27.962 -1.151)" fill="#18206f"/>
  </g>
</svg>
