<svg xmlns="http://www.w3.org/2000/svg" width="19.603" height="19.711" viewBox="0 0 19.603 19.711">
  <g id="room_blue" transform="translate(0.1 0.1)">
    <path id="Path_86" data-name="Path 86" d="M16.575,1.078a.966.966,0,0,1,.97.97V6.683a.95.95,0,0,1-.97.862H11.94a.95.95,0,0,1-.862-.97V2.048a.95.95,0,0,1,.862-.97h4.635m0-1.078H11.94A2.027,2.027,0,0,0,10,2.048V6.683a2.1,2.1,0,0,0,1.94,2.048h4.635a2.027,2.027,0,0,0,2.048-1.94h0V2.048A1.982,1.982,0,0,0,16.575,0Z" transform="translate(0.779)" fill="#3772ff" stroke="#3772ff" stroke-width="0.2"/>
    <path id="Path_87" data-name="Path 87" d="M6.575,1.078a.88.88,0,0,1,.97.862h0V6.575a.966.966,0,0,1-.97.97H1.94a.95.95,0,0,1-.862-.97V2.048a.95.95,0,0,1,.862-.97H6.575M6.575,0H1.94A2.027,2.027,0,0,0,0,2.048V6.683a2,2,0,0,0,1.94,1.94H6.575a2.027,2.027,0,0,0,2.048-1.94h0V2.048A1.982,1.982,0,0,0,6.575,0Z" fill="#3772ff" stroke="#3772ff" stroke-width="0.2"/>
    <path id="Path_88" data-name="Path 88" d="M16.575,11.078a.966.966,0,0,1,.97.97v4.635a.966.966,0,0,1-.97.97H11.94a.966.966,0,0,1-.97-.97h0V12.048a.966.966,0,0,1,.97-.97h4.635m0-1.078H11.94A2.027,2.027,0,0,0,10,12.048v4.635a2.1,2.1,0,0,0,1.94,2.048h4.635a2.027,2.027,0,0,0,2.048-1.94h0V12.156A2.011,2.011,0,0,0,16.575,10Z" transform="translate(0.779 0.779)" fill="#3772ff" stroke="#3772ff" stroke-width="0.2"/>
    <path id="Path_89" data-name="Path 89" d="M6.575,11.078a.966.966,0,0,1,.97.97v4.635a.95.95,0,0,1-.97.862H1.94a.95.95,0,0,1-.862-.97V11.94a.927.927,0,0,1,.862-.862H6.575m0-1.078H1.94A2.027,2.027,0,0,0,0,12.048v4.635a2.1,2.1,0,0,0,1.94,2.048H6.575a2.027,2.027,0,0,0,2.048-1.94h0V12.156A2.011,2.011,0,0,0,6.575,10Z" transform="translate(0 0.779)" fill="#3772ff" stroke="#3772ff" stroke-width="0.2"/>
  </g>
</svg>
