<svg xmlns="http://www.w3.org/2000/svg" width="19.255" height="19.255" viewBox="0 0 19.255 19.255">
  <g id="settings" transform="translate(-2.407 -2.407)">
    <path id="path" d="M11.627,21.255a9.627,9.627,0,1,1,9.627-9.627A9.627,9.627,0,0,1,11.627,21.255Zm0-1.75A7.877,7.877,0,1,0,3.75,11.627,7.877,7.877,0,0,0,11.627,19.5Zm0-11.378a.875.875,0,1,1,.875-.875A.875.875,0,0,1,11.627,8.126Zm-.875,2.188a.875.875,0,1,1,1.75,0V16a.875.875,0,1,1-1.75,0Z" transform="translate(0.407 0.407)" fill="rgba(24,32,111,0.5)"/>
  </g>
</svg>
