<svg xmlns="http://www.w3.org/2000/svg" width="20.613" height="17.012" viewBox="0 0 20.613 17.012">
  <g id="sleep2" transform="translate(-24.029 -28.601)">
    <g id="Group_21" data-name="Group 21" transform="translate(35.185 32.86)">
      <g id="Group_20" data-name="Group 20" transform="translate(0)">
        <path id="Path_101" data-name="Path 101" d="M54.683,42.882H52.791a.642.642,0,0,1-.472-.2.65.65,0,0,1-.189-.464.68.68,0,0,1,.132-.392.376.376,0,0,1,.044-.052l1.8-1.787H52.523a.393.393,0,0,1,0-.786h1.9a.644.644,0,0,1,.473.2.673.673,0,0,1,.076.829.372.372,0,0,1-.051.061L53.1,42.1h1.587a.393.393,0,1,1,0,.786Z" transform="translate(-52.13 -39.198)" fill="#18206f" stroke="#18206f" stroke-width="0.3"/>
      </g>
    </g>
    <g id="Group_23" data-name="Group 23" transform="translate(39.023 31.299)">
      <g id="Group_22" data-name="Group 22" transform="translate(0 0)">
        <path id="Path_102" data-name="Path 102" d="M64.011,38.332H62.5a.611.611,0,0,1-.607-.611.626.626,0,0,1,.118-.357.434.434,0,0,1,.046-.055l1.307-1.294H62.283a.393.393,0,0,1,0-.786H63.8a.6.6,0,0,1,.434.187.617.617,0,0,1,.07.762.36.36,0,0,1-.051.061l-1.321,1.308h1.078a.393.393,0,0,1,0,.787Z" transform="translate(-61.89 -35.228)" fill="#18206f" stroke="#18206f" stroke-width="0.3"/>
      </g>
    </g>
    <g id="Group_25" data-name="Group 25" transform="translate(42.323 29.738)">
      <g id="Group_24" data-name="Group 24">
        <path id="Path_103" data-name="Path 103" d="M72.057,33.9H70.846a.568.568,0,0,1-.564-.568A.578.578,0,0,1,70.393,33a.386.386,0,0,1,.043-.051l.91-.9h-.671a.393.393,0,0,1,0-.786h1.214a.553.553,0,0,1,.4.174.573.573,0,0,1,.061.71.379.379,0,0,1-.048.058l-.921.912h.671a.394.394,0,0,1,0,.787Z" transform="translate(-70.282 -31.258)" fill="#18206f" stroke="#18206f" stroke-width="0.3"/>
      </g>
    </g>
    <g id="Group_26" data-name="Group 26" transform="translate(24.203 28.752)">
      <path id="Path_104" data-name="Path 104" d="M32.565,45.463h0A8.359,8.359,0,0,1,29,29.543a8.306,8.306,0,0,1,4.261-.761.393.393,0,0,1,.289.615,7.559,7.559,0,0,0,5.583,11.85.393.393,0,0,1,.289.615,8.341,8.341,0,0,1-6.856,3.6Zm-.034-15.924a7.461,7.461,0,0,0-3.2.716,7.572,7.572,0,0,0,3.231,14.421h0a7.552,7.552,0,0,0,5.809-2.732,8.341,8.341,0,0,1-5.844-12.406Z" transform="translate(-24.203 -28.752)" fill="#18206f" stroke="#18206f" stroke-width="0.3"/>
    </g>
  </g>
</svg>
