<svg xmlns="http://www.w3.org/2000/svg" width="16.933" height="19.191" viewBox="0 0 16.933 19.191">
  <g id="wakeup" transform="translate(0 0)">
    <path id="Path_136" data-name="Path 136" d="M540.812,421.972a3.669,3.669,0,0,1,5.7-4.617,8.537,8.537,0,0,1,3.9,0,3.669,3.669,0,0,1,5.7,4.617A8.474,8.474,0,0,1,554,432.006l1.184,2.368a.564.564,0,0,1-1.01.5l-1.091-2.182a8.455,8.455,0,0,1-9.225,0l-1.091,2.182a.564.564,0,0,1-1.01-.5l1.184-2.368a8.474,8.474,0,0,1-2.124-10.035Zm4.5-4.237a2.541,2.541,0,0,0-3.881,3.144A8.495,8.495,0,0,1,545.316,417.735Zm10.183,3.144a2.541,2.541,0,0,0-3.881-3.144A8.495,8.495,0,0,1,555.5,420.878Zm-7.032,12.055a7.338,7.338,0,1,0-7.338-7.338A7.338,7.338,0,0,0,548.466,432.933Zm2-5.624a.564.564,0,0,1,.8.8,3.951,3.951,0,0,1-5.587,0,.564.564,0,0,1,.8-.8A2.822,2.822,0,0,0,550.462,427.309Zm-4.536-3.124a.847.847,0,1,1,.847-.847A.847.847,0,0,1,545.926,424.184Zm5.08,0a.847.847,0,1,1,.847-.847A.847.847,0,0,1,551.006,424.184Z" transform="translate(-540 -416)" fill="#18206f"/>
  </g>
</svg>
